<svg id="Layer_1" enable-background="new 0 0 496.017 496.017" height="512" viewBox="0 0 496.017 496.017" width="512" xmlns="http://www.w3.org/2000/svg"><path d="m490.864 160.547-17.899-32.293c-26.573-47.937-96.079-47.623-122.045.844l-15.135-3.395c25.807-29.602 42.59-59.876 55.559-94.558 3.093-8.277-1.11-17.495-9.388-20.588-8.276-3.095-17.494 1.109-20.589 9.387-28.7 76.804-83.981 129.658-150.177 156.275-4.722 1.898-9.38 3.919-13.976 6.049l-2.762-16.439c45.685-23.101 51.352-86.41 10.578-117.36l-29.408-22.323c-21.262-16.143-52.035-7.92-62.397 16.703l-14.324 34.03c-19.209 45.643 14.393 96.673 64.369 96.49l4.175 24.85c-45.339 27.709-82.56 67.231-107.461 114.282-14.583-25.525-19.698-54.87-14.612-83.868 1.526-8.703-4.292-16.996-12.996-18.523-8.706-1.53-16.997 4.292-18.523 12.996-7.927 45.198 4.211 89.536 30.684 123.75-1.701 4.538 7.561-20.58-43.544 118.084-3.056 8.292 1.188 17.49 9.479 20.546 8.279 3.052 17.487-1.178 20.546-9.479 43.415-117.797 48.141-137.863 72.044-173.136 41.352 16.298 88.43 18.058 133.099 1.63 8.294-3.05 12.544-12.246 9.494-20.539s-12.241-12.546-20.539-9.494c-32.177 11.833-67.604 12.869-101.47 1.826 26.971-30.585 60.935-54.883 99.483-70.384 31.83-12.799 60.882-30.975 86.078-53.373l33.449 7.504c-1.143 39.246 30.587 71.456 69.555 71.456 11.418 0 15.416-1.708 53.221-11.573 25.817-6.738 38.388-36.008 25.432-59.377zm-348.145-105.283c2.236-5.315 8.889-7.17 13.556-3.629 32.058 24.335 31.091 23.385 33.967 26.424-22.864 12.684-42.127 16.919-63.799 17.278.978-4.201.679-3.021 16.276-40.073zm-9.141 71.887c23.171-1.077 46.014-7.278 66.56-18.053-4.537 32.515-46.157 43.892-66.56 18.053zm278.437-2.71c-13.477 18.884-22.721 40.675-26.949 63.487-22.873-23.782-5.816-63.425 26.949-63.487zm45.335 64.519c-38.861 10.141-37.573 9.987-41.767 10.372 3.698-22.948 10.937-41.2 25.84-60.823 2.755 3.436 1.925 2.322 21.453 37.553 2.815 5.079.094 11.431-5.526 12.898z"/></svg>