<?xml version="1.0" encoding="iso-8859-1"?>
<!-- Generator: Adobe Illustrator 19.0.0, SVG Export Plug-In . SVG Version: 6.00 Build 0)  -->
<svg version="1.1" id="Capa_1" xmlns="http://www.w3.org/2000/svg" xmlns:xlink="http://www.w3.org/1999/xlink" x="0px" y="0px"
	 viewBox="0 0 512 512" style="enable-background:new 0 0 512 512;" xml:space="preserve">
<g>
	<g>
		<path d="M241,0c-51.832,0-96.112,34.902-112.678,81.511l53.45,40.087L260.863,68.5c7.793-5.054,16.348-7.588,25.137-7.588
			s17.344,2.534,24.712,7.31l48.214,32.263C349.127,44.101,300.143,0,241,0z"/>
	</g>
</g>
<g>
	<g>
		<path d="M294.4,93.401c-5.1-3.302-11.7-3.302-16.801,0l-70.406,47.263l74.703,56.025l66.89-66.896L294.4,93.401z"/>
	</g>
</g>
<g>
	<g>
		<path d="M30,211c-16.377,0-30,43.564-30,60c0,10.957,6.2,20.151,15,25.388V346c0,8.291,6.709,15,15,15s15-6.709,15-15v-49.612
			c8.8-5.237,15-14.431,15-25.388C60,254.564,46.377,211,30,211z"/>
	</g>
</g>
<g>
	<g>
		<path d="M482,181c-16.377,0-30,43.564-30,60c0,10.957,6.2,20.151,15,25.388V286c0,8.291,6.709,15,15,15c8.291,0,15-6.709,15-15
			v-19.612c8.8-5.237,15-14.431,15-25.388C512,224.564,498.377,181,482,181z"/>
	</g>
</g>
<g>
	<g>
		<path d="M301,271c-117.759,0-211,52.705-212.729,121.963C34.644,399.76,0,422.538,0,451
			c-0.015,43.052,74.872,64.516,137.333,60.487C227.238,505.846,270.18,512,301,512c117.759,0,211-53.705,211-121
			S418.759,271,301,271z M226,451h-60c-8.291,0-15-6.709-15-15c0-8.291,6.709-15,15-15h60c8.291,0,15,6.709,15,15
			C241,444.291,234.291,451,226,451z M256,391h-30c-8.291,0-15-6.709-15-15c0-8.291,6.709-15,15-15h30c8.291,0,15,6.709,15,15
			C271,384.291,264.291,391,256,391z M346,451h-60c-8.291,0-15-6.709-15-15c0-8.291,6.709-15,15-15h60c8.291,0,15,6.709,15,15
			C361,444.291,354.291,451,346,451z M376,361h-60c-8.291,0-15-6.709-15-15c0-8.291,6.709-15,15-15h60c8.291,0,16,6.709,16,15
			C392,354.291,384.291,361,376,361z M437,421h-30c-8.291,0-15-6.709-15-15c0-8.291,6.709-15,15-15h30c8.291,0,15,6.709,15,15
			C452,414.291,445.291,421,437,421z"/>
	</g>
</g>
<g>
	<g>
		<g>
			<path d="M280.002,241L280.002,241C279.951,241.05,279.954,241.047,280.002,241z"/>
			<path d="M507.499,95.501l-30-30c-5.7-6-15.298-6-20.999,0C453.542,68.459,282.817,238.217,280.002,241H422c0-19.058,15-90,60-90
				c12.138,0,21.934,5.374,30,13.286V106C512,102.1,510.5,98.2,507.499,95.501z"/>
		</g>
	</g>
</g>
<g>
	<g>
		<path d="M53.716,63.798c-5.435-3.926-12.847-3.706-18.091,0.483L2.119,120.453C0.732,122.776,0,125.431,0,128.137v66.149
			C8.066,186.374,17.862,181,30,181c30.738,0,47.249,32.946,54.772,60h152.8l22.892-22.892L53.716,63.798z"/>
	</g>
</g>
<g>
</g>
<g>
</g>
<g>
</g>
<g>
</g>
<g>
</g>
<g>
</g>
<g>
</g>
<g>
</g>
<g>
</g>
<g>
</g>
<g>
</g>
<g>
</g>
<g>
</g>
<g>
</g>
<g>
</g>
</svg>
