<svg id="Layer_1" enable-background="new 0 0 512.109 512.109" height="512" viewBox="0 0 512.109 512.109" width="512" xmlns="http://www.w3.org/2000/svg"><path d="m509.948 217.06c-1.19-2.08-24.58-42.25-67.07-62.1l4.83-23.61c11.085-51.791 13.326-131.35-39.65-131.35-11.87 0-19.08 8.54-23.49 17.44-11.61-11.33-25.3-13.58-37.05-12.5-1.98-.1-4.02.17-6.01.86-19.61 6.76-17.26 33.52-16.49 42.31 2.787 31.795 17.783 82.231 27.78 112.68-13.245 11.033-23.188 26.83-29.32 43.16l-45.66 13.05h-133.76c-40.13 0-77.46 15.16-107.96 43.84-17.869 16.813-31.966 37.925-34.72 44.81-3.602 8.106.276 18.542 9.9 21.62 1.12.33-1.955-.386 28.78 6.53 0 18.472-1.247 49.299 24.39 81.26-15.974 27.976-15.088 26.022-15.87 28.89-1.311 4.756-.184 10.295 3.21 14.32 1.493 1.866-2.583-1.416 66.67 50.53 5.623 4.222 8.871 3.2 33.6 3.2 8.84 0 16-7.16 16-16s-7.16-16-16-16h-18.67l-27.32-20.49c26.943-2.958 25.08-2.551 28.28-3.79 47.627-19.206 52.972-20.146 65.75-31.63l53.13-3.43c42.339 66.614 13.908 21.878 53.33 83.92 2.93 4.62 8.03 7.42 13.5 7.42h24c8.84 0 16-7.16 16-16s-7.16-16-16-16h-15.21l-12.09-19.02c-5.526-47.382-5.331-43.98-4.72-43.98 1.637 0 3.048-.253 4.89-.61 63.259-11.399 115.261-57.745 133.22-120.47 26.76-4.69 49.26-24.41 56.9-51.14l4.39-15.38c1.19-4.15.65-8.6-1.49-12.34z"/></svg>