<?xml version="1.0" encoding="iso-8859-1"?>
<!-- Generator: Adobe Illustrator 19.0.0, SVG Export Plug-In . SVG Version: 6.00 Build 0)  -->
<svg version="1.1" id="Capa_1" xmlns="http://www.w3.org/2000/svg" xmlns:xlink="http://www.w3.org/1999/xlink" x="0px" y="0px"
	 viewBox="0 0 512.003 512.003" style="enable-background:new 0 0 512.003 512.003;" xml:space="preserve">
<g>
	<g>
		<path d="M217.665,387.412l-58.182-58.182c-4.55-4.55-11.904-4.55-16.454,0L108.12,364.14c-4.55,4.55-4.55,11.904,0,16.454
			l58.182,58.182c2.269,2.269,5.248,3.409,8.227,3.409c2.979,0,5.958-1.14,8.227-3.409l34.909-34.909
			C222.215,399.316,222.215,391.962,217.665,387.412z M174.529,414.095l-41.728-41.728l18.455-18.455l41.728,41.728L174.529,414.095
			z" fill="white"/>
	</g>
</g>
<g>
	<g>
		<path d="M473.665,49.958L427.12,3.412c-4.55-4.55-11.904-4.55-16.454,0L177.939,236.14c-4.55,4.55-4.55,11.904,0,16.454
			c4.55,4.55,11.904,4.55,16.454,0l224.5-224.5l27.52,27.52l-23.191,13.184c-4.084,2.316-6.365,6.865-5.807,11.532l4.166,33.943
			L391.85,131.18c-4.084,2.316-6.377,6.865-5.807,11.532l4.166,33.943l-29.731,16.908c-4.084,2.316-6.365,6.865-5.807,11.532
			l4.166,33.943l-29.731,16.908c-4.084,2.316-6.377,6.865-5.807,11.532l4.166,33.943l-29.731,16.908
			c-4.084,2.316-6.365,6.865-5.807,11.532l4.166,33.943l-29.731,16.908c-4.282,2.432-6.575,7.308-5.702,12.16l6.028,33.757
			l-10.705,10.74l-6.819-6.819l3.409-3.409c2.176-2.176,3.409-5.143,3.409-8.227v-46.545c0-3.084-1.222-6.051-3.409-8.227
			l-93.091-93.091c-4.55-4.55-11.904-4.55-16.454,0L38.302,375.776c-4.55,4.55-4.55,11.904,0,16.454
			c2.269,2.269,5.248,3.409,8.227,3.409c2.979,0,5.958-1.14,8.227-3.409l3.409-3.409l99.91,99.91l-3.409,3.409
			c-4.55,4.55-4.55,11.904,0,16.454c2.269,2.269,5.248,3.409,8.227,3.409c2.979,0,5.958-1.14,8.227-3.409l34.909-34.909
			c4.55-4.55,4.55-11.904,0-16.454c-4.55-4.55-11.904-4.55-16.454,0l-15.046,15.046l-99.91-99.91l76.637-76.637l81.455,81.455
			v36.911l-8.227,8.227c-4.55,4.55-4.55,11.904,0,16.454l23.273,23.273c4.55,4.55,11.904,4.55,16.454,0l23.273-23.273
			c2.688-2.688,3.898-6.528,3.223-10.275l-5.644-31.639l29.324-16.675c4.084-2.316,6.365-6.865,5.807-11.532l-4.166-33.943
			l29.731-16.908c4.084-2.316,6.365-6.865,5.807-11.532l-4.166-33.943l29.731-16.908c4.084-2.316,6.365-6.865,5.807-11.532
			l-4.166-33.943l29.731-16.908c4.084-2.316,6.365-6.865,5.807-11.532l-4.166-33.943l29.731-16.908
			c4.084-2.316,6.365-6.865,5.807-11.532l-4.166-33.943l29.731-16.908c3.154-1.792,5.295-4.957,5.783-8.553
			C477.459,56.148,476.237,52.529,473.665,49.958z" fill="white"/>
	</g>
</g>
<g>
</g>
<g>
</g>
<g>
</g>
<g>
</g>
<g>
</g>
<g>
</g>
<g>
</g>
<g>
</g>
<g>
</g>
<g>
</g>
<g>
</g>
<g>
</g>
<g>
</g>
<g>
</g>
<g>
</g>
</svg>
