<?xml version="1.0" encoding="iso-8859-1"?>
<!-- Generator: Adobe Illustrator 19.0.0, SVG Export Plug-In . SVG Version: 6.00 Build 0)  -->
<svg version="1.1" id="Capa_1" xmlns="http://www.w3.org/2000/svg" xmlns:xlink="http://www.w3.org/1999/xlink" x="0px" y="0px"
	 viewBox="0 0 512 512" style="enable-background:new 0 0 512 512;" xml:space="preserve">
<g>
	<g>
		<path d="M341.333,42.667c-36.615,0-75.109,20.473-94.27,64h-12.397C211.146,106.667,192,87.531,192,64
			c0-2.583-0.938-5.083-2.646-7.021c-1.271-1.469-13.292-14.313-40.021-14.313c-26.729,0-38.75,12.844-40.021,14.313
			c-1.708,1.938-2.646,4.438-2.646,7.021c0,70.583,57.417,128,128,128h4.181c4.246,11.702,11.503,22.208,21.715,29.792
			c-2.354,8.615-3.542,17.188-3.542,25.563c0,12.948,2.583,25.625,7.708,37.802c-13.208,7.542-23.083,20.063-27.417,34.854
			c-31.292,0.354-55.396,6.896-70.396,18.49c-12.188-7.177-38.292-18.5-81.583-18.5C31.896,320,0,371.833,0,458.667
			c0,5.896,4.771,10.667,10.667,10.667h42.667c5.896,0,10.667-4.771,10.667-10.667c0-46.875,10.25-53.333,21.333-53.333
			c8,0,9.542,1.958,13.25,6.688c4.583,5.833,11.5,14.646,29.417,14.646h28.188c12.396,9.75,58.813,42.667,121.146,42.667
			C358.5,469.333,512,424.75,512,256C512,80.99,388.813,42.667,341.333,42.667z" fill="white"/>
	</g>
</g>
<g>
</g>
<g>
</g>
<g>
</g>
<g>
</g>
<g>
</g>
<g>
</g>
<g>
</g>
<g>
</g>
<g>
</g>
<g>
</g>
<g>
</g>
<g>
</g>
<g>
</g>
<g>
</g>
<g>
</g>
</svg>
